<?xml version="1.0" standalone="no"?>
<!DOCTYPE svg PUBLIC "-//W3C//DTD SVG 20010904//EN"
 "http://www.w3.org/TR/2001/REC-SVG-20010904/DTD/svg10.dtd">
<svg version="1.0" xmlns="http://www.w3.org/2000/svg"
 width="1080.000000pt" height="608.000000pt" viewBox="0 0 1080.000000 608.000000"
 preserveAspectRatio="xMidYMid meet">

<g transform="translate(0.000000,608.000000) scale(0.100000,-0.100000)"
fill="#000000" stroke="none">
<path d="M3720 2961 l0 -551 198 0 c108 0 235 4 280 10 198 22 309 128 320
301 7 127 -37 214 -136 263 l-32 17 36 31 c59 52 79 101 79 193 0 96 -21 142
-91 204 -76 67 -112 74 -401 79 l-253 4 0 -551z m454 278 c36 -28 36 -86 1
-119 -23 -22 -35 -24 -108 -25 l-82 0 -3 83 -3 82 84 0 c70 0 89 -3 111 -21z
m52 -410 c18 -19 26 -37 26 -62 0 -80 -45 -107 -182 -107 l-90 0 0 93 c0 52 3
97 8 101 4 5 53 6 110 4 94 -3 104 -6 128 -29z"/>
<path d="M4590 2960 l0 -550 119 0 119 0 4 258 c4 285 10 317 67 346 39 21
106 20 141 -1 52 -30 55 -47 60 -333 l5 -265 123 -3 123 -3 -3 318 c-3 310 -4
319 -27 371 -29 64 -95 125 -158 146 -72 25 -177 21 -240 -8 -29 -14 -58 -34
-65 -45 -7 -12 -16 -21 -20 -21 -5 0 -8 77 -8 170 l0 170 -120 0 -120 0 0
-550z"/>
<path d="M7958 3373 l-3 -138 -57 -3 -58 -3 0 -89 0 -90 60 0 60 0 0 -320 0
-320 120 0 120 0 2 318 3 317 58 3 57 3 0 89 0 89 -57 3 -58 3 -3 138 -3 137
-119 0 -119 0 -3 -137z"/>
<path d="M5705 3247 c-156 -52 -258 -175 -287 -344 -25 -150 30 -325 130 -414
75 -66 141 -92 248 -97 111 -5 177 13 231 64 20 19 37 34 39 34 2 0 4 -18 4
-40 l0 -40 120 0 120 0 0 410 0 410 -120 0 -120 0 0 -35 c0 -38 -14 -46 -29
-17 -5 10 -34 31 -63 47 -46 25 -66 30 -143 32 -55 2 -105 -2 -130 -10z m238
-231 c75 -31 120 -104 121 -193 0 -118 -84 -203 -201 -203 -218 0 -283 291
-88 393 37 20 125 22 168 3z"/>
<path d="M6745 3241 c-23 -10 -53 -33 -68 -50 l-27 -33 0 36 0 36 -115 0 -115
0 0 -410 0 -410 120 0 120 0 0 245 c0 267 5 296 54 328 14 10 41 20 59 23 85
14 77 1 77 134 l0 120 -32 0 c-18 0 -51 -9 -73 -19z"/>
<path d="M7149 3244 c-104 -31 -206 -130 -250 -241 -21 -50 -24 -75 -24 -184
0 -124 0 -126 37 -200 46 -93 104 -152 188 -193 61 -29 72 -31 175 -31 121 0
151 10 213 68 l32 31 0 -42 0 -43 123 3 122 3 3 408 2 407 -125 0 -125 0 0
-38 0 -39 -39 37 c-22 21 -61 45 -87 54 -59 20 -181 20 -245 0z m259 -233 c72
-37 112 -104 112 -186 0 -119 -86 -205 -203 -205 -75 0 -133 32 -172 95 -62
101 -28 238 74 292 56 29 136 31 189 4z"/>
<path d="M1985 2830 l-580 -156 -3 -146 -3 -146 83 23 c46 13 306 83 578 155
272 73 499 135 503 139 4 4 6 70 5 147 l-3 139 -580 -155z"/>
</g>
</svg>
