<?xml version="1.0" encoding="utf-8"?>
<!-- Generator: Adobe Illustrator 16.0.0, SVG Export Plug-In . SVG Version: 6.00 Build 0)  -->
<!DOCTYPE svg PUBLIC "-//W3C//DTD SVG 1.1//EN" "http://www.w3.org/Graphics/SVG/1.1/DTD/svg11.dtd" [
	<!ENTITY ns_flows "http://ns.adobe.com/Flows/1.0/">
	<!ENTITY ns_extend "http://ns.adobe.com/Extensibility/1.0/">
	<!ENTITY ns_ai "http://ns.adobe.com/AdobeIllustrator/10.0/">
	<!ENTITY ns_graphs "http://ns.adobe.com/Graphs/1.0/">
]>
<svg version="1.1" id="Layer_1" xmlns:x="&ns_extend;" xmlns:i="&ns_ai;" xmlns:graph="&ns_graphs;"
	 xmlns="http://www.w3.org/2000/svg" xmlns:xlink="http://www.w3.org/1999/xlink" xmlns:a="http://ns.adobe.com/AdobeSVGViewerExtensions/3.0/"
	 x="0px" y="0px" width="396px" height="288px" viewBox="0 0 396 288" style="enable-background:new 0 0 396 288;"
	 xml:space="preserve">
<g>
	<g>
		<path style="fill-rule:evenodd;clip-rule:evenodd;fill:#231F20;" d="M132.288,224.069l-84.628-26.371
			c-7.063-2.199-11.004-9.709-8.803-16.771l11.154-35.173l-17.248-4.953c9.307,1.092,17.159,1.418,25.115,0.922l-4.817,14.631
			c-2.2,7.063,1.741,14.57,8.803,16.771l72.074,22.459c7.062,2.2,14.571-1.741,16.771-8.803l19.025-60.607
			c24.574-4.951,48.007-13.601,54.346-27.733c3.086-5.567,0.583-11.068-10.732-18.092c11.121,2.031,20.769,5.871,23.963,17.632
			c0.758,11.243-11.688,24.511-37.224,33.821l-27.757,9.349l-17.502,56.266l-0.115,0.003l-5.652,17.847
			C146.859,222.329,139.351,226.271,132.288,224.069z"/>
		<path style="fill-rule:evenodd;clip-rule:evenodd;fill:#1BB24B;" d="M57.299,121.587c7.555-23.594,15.149-48.911,22.704-72.505
			C92.446,12.365,110.44-0.138,139.901,5.57c32.548,4.347,65.37,16.03,98.025,33.483c12.766,11.642,11.451,25.834-4.606,38.852
			c-10.205-5.976-20.411-11.952-30.616-17.928c-7.646,17.479-12.552,31.785-18.2,50.527c6.711-0.482,13.539-2.811,20.25-3.293
			c-8.386,5.95-35.585,13.429-67.898,19.316c3.936-2.017,7.263-5.009,9.941-9.617l9.821,3.012c0.395,0.121,8.87-6.687,9.369-7.546
			l-16.563-5.079c-0.415-0.127-0.664-4.12-0.717-4.772c-0.124-1.521-0.642-3.114-0.916-4.544l15.072,4.599l8.972-7.631
			L112.601,76.77l-9.103,7.133c7.213,2.226,14.16,4.354,20.001,7.33c4.625,2.357,11.683,7.182,11.368,11.761l-27.85-8.54
			c-0.324-0.099-8.012,5.969-8.469,6.7l35.179,10.788c-1.683,5.487-8.659,8.347-13.099,9.074c-3.507,0.574-4.694,0.83-8.928,0.056
			c-3.238-0.592-6.635-1.249-10.202-2.342l-1.759-0.54l-2.729-1.027l-2.571,8.378c-0.045,0.146,1.3,3.117,3.084,6.965
			c-14.837,1.809-29.63,3.09-43.264,3.588c-42.891,1.146-61.599-6.775-48.95-26.53c6.319-8.826,15.733-14.761,28.208-17.838
			C-1.575,114.688,12.672,123.789,57.299,121.587L57.299,121.587z M118.4,129.624c-2.809-0.144-5.528-0.516-7.693-1.18l-0.153,0.067
			l0.943,2.14C113.808,130.319,116.109,129.976,118.4,129.624z"/>
		<path style="fill-rule:evenodd;clip-rule:evenodd;fill:#008039;" d="M202.489,60.47c6.269-14.833,16.801-22.931,32.401-23.021
			c1.012,0.53,2.024,1.064,3.036,1.605c12.766,11.642,11.451,25.834-4.605,38.851c-10.206-5.976-20.412-11.952-30.617-17.928
			C202.633,60.141,202.561,60.306,202.489,60.47z"/>
		<path style="fill-rule:evenodd;clip-rule:evenodd;fill:#1BB24B;" d="M97.521,132.504c3.146,6.785,7.657,16.3,8.334,17.896
			c0.971,2.291,11.167,24.542,11.562,24.663l15.538,4.764l0.175-0.076l-21.634-49.1C106.856,131.316,102.187,131.936,97.521,132.504
			L97.521,132.504z M118.4,129.624c5.142,0.264,10.579-0.236,13.451-1.107c1.763-0.534,3.432-1.184,5.003-1.989
			C130.85,127.621,124.669,128.659,118.4,129.624z"/>
		<circle style="fill-rule:evenodd;clip-rule:evenodd;fill:#FFFFFF;" cx="94.179" cy="197.974" r="9.326"/>
	</g>
	<g>
		<path style="fill-rule:evenodd;clip-rule:evenodd;fill:#1BB24B;" d="M209.077,185.224v8.312H197.04v31.146h-9.172v-68.596h22.738
			v8.312H197.04v20.827H209.077L209.077,185.224z M216.815,224.681v-68.596h9.172v68.596H216.815L216.815,224.681z M253.597,189.236
			v-33.151h9.172v68.596h-9.172v-13.662l-9.84-31.24v44.902h-9.172v-68.596h9.172L253.597,189.236z"/>
		<path style="fill-rule:evenodd;clip-rule:evenodd;" d="M280.061,224.681h-9.171v-56.846c0-7.833,3.662-11.75,10.986-11.75h6.879
			c7.324,0,10.986,3.917,10.986,11.75v56.846h-9.171v-25.127h-10.51V224.681L280.061,224.681z M290.57,191.242v-22.833
			c0-2.676-1.338-4.013-4.013-4.013h-2.484c-2.675,0-4.013,1.337-4.013,4.013v22.833H290.57L290.57,191.242z M322.002,199.554
			v-8.312h13.948v33.438h-17.961c-7.069,0-10.604-3.854-10.604-11.561v-45.285c0-7.833,3.535-11.75,10.604-11.75h6.306
			c7.77,0,11.655,3.98,11.655,11.941v7.452h-9.172v-6.114c0-3.313-1.306-4.968-3.917-4.968h-2.293c-2.675,0-4.013,1.655-4.013,4.968
			V211.4c0,3.312,1.338,4.968,4.013,4.968h6.21v-16.814H322.002L322.002,199.554z M357.541,199.554v-8.312h13.948v33.438h-17.961
			c-7.069,0-10.604-3.854-10.604-11.561v-45.285c0-7.833,3.535-11.75,10.604-11.75h6.306c7.771,0,11.655,3.98,11.655,11.941v7.452
			h-9.171v-6.114c0-3.313-1.306-4.968-3.917-4.968h-2.293c-2.675,0-4.013,1.655-4.013,4.968V211.4c0,3.312,1.338,4.968,4.013,4.968
			h6.21v-16.814H357.541z"/>
	</g>
	<path style="fill-rule:evenodd;clip-rule:evenodd;" d="M52.364,254.709v25.685h3.405v3.356H44.532v-3.356h3.649v-9.445
		c-1.079,1.135-2.206,1.954-3.397,2.465c-1.184,0.502-2.578,0.754-4.184,0.754c-3.389,0-6.186-1.111-8.407-3.332
		c-2.213-2.222-3.324-5.002-3.324-8.343c0-3.308,1.094-6.089,3.275-8.343c2.189-2.254,4.914-3.381,8.172-3.381
		c1.605,0,3.041,0.268,4.313,0.795s2.456,1.354,3.551,2.473v-2.684h7.588v3.356H52.364L52.364,254.709z M33.247,262.492
		c0,2.376,0.729,4.337,2.189,5.894c1.459,1.549,3.275,2.328,5.44,2.328c2.173,0,3.989-0.779,5.44-2.328
		c1.443-1.557,2.173-3.518,2.173-5.894s-0.729-4.329-2.173-5.87c-1.451-1.532-3.267-2.303-5.44-2.303
		c-2.229,0-4.062,0.763-5.489,2.295C33.96,258.139,33.247,260.101,33.247,262.492L33.247,262.492z M61.468,254.709h-3.405v-3.356
		h7.588v13.369c0,2.344,0.3,3.875,0.9,4.605c0.6,0.729,1.613,1.094,3.041,1.094c1.176,0,2.327-0.308,3.47-0.924
		c1.135-0.616,2.318-1.581,3.535-2.879v-11.909h-3.454v-3.356h7.637v18.874h3.405v3.405h-7.588v-3.211
		c-1.313,1.297-2.635,2.254-3.957,2.871c-1.321,0.615-2.708,0.924-4.167,0.924c-2.424,0-4.191-0.641-5.318-1.922
		s-1.687-3.316-1.687-6.105V254.709L61.468,254.709z M88.572,245.808v-4.476h5.983v4.476H88.572L88.572,245.808z M94.555,270.275
		h3.892v3.356h-11.87v-3.356h3.843v-15.566h-3.843v-3.356h7.978V270.275L94.555,270.275z M119.104,267.162l2.246,2.188
		c-1.216,1.582-2.684,2.789-4.394,3.616c-1.711,0.835-3.6,1.249-5.675,1.249c-3.373,0-6.056-1.055-8.051-3.17
		c-1.994-2.108-2.991-4.93-2.991-8.457c0-3.543,0.964-6.404,2.902-8.568c1.938-2.166,4.491-3.252,7.653-3.252
		c1.443,0,2.716,0.219,3.818,0.665c1.111,0.438,2.108,1.127,2.992,2.052v-2.133h3.259v7.686h-2.976
		c-0.632-1.598-1.508-2.797-2.635-3.607c-1.127-0.803-2.473-1.208-4.037-1.208c-2.011,0-3.632,0.762-4.857,2.294
		c-1.224,1.524-1.84,3.551-1.84,6.072c0,2.547,0.657,4.541,1.97,5.976c1.313,1.436,3.154,2.149,5.513,2.149
		c1.362,0,2.635-0.293,3.811-0.885C116.997,269.245,118.091,268.354,119.104,267.162L119.104,267.162z M127.634,242.013h-3.405
		v-3.404h7.443v22.766l8.375-6.665h-3.073v-3.356h10.556v3.356h-2.424l-8.724,7.046l8.537,8.521h2.611v3.356h-10.361v-3.356h2.732
		l-8.229-8.116v8.116h2.87v3.356h-10.313v-3.356h3.405V242.013L127.634,242.013z M181.191,267.162l2.246,2.188
		c-1.216,1.582-2.684,2.789-4.395,3.616c-1.711,0.835-3.6,1.249-5.675,1.249c-3.373,0-6.057-1.055-8.051-3.17
		c-1.994-2.108-2.992-4.93-2.992-8.457c0-3.543,0.965-6.404,2.902-8.568c1.938-2.166,4.492-3.252,7.653-3.252
		c1.443,0,2.716,0.219,3.819,0.665c1.11,0.438,2.108,1.127,2.991,2.052v-2.133h3.26v7.686h-2.976
		c-0.633-1.598-1.508-2.797-2.635-3.607c-1.127-0.803-2.473-1.208-4.038-1.208c-2.011,0-3.632,0.762-4.856,2.294
		c-1.224,1.524-1.84,3.551-1.84,6.072c0,2.547,0.657,4.541,1.97,5.976c1.313,1.436,3.154,2.149,5.513,2.149
		c1.361,0,2.635-0.293,3.811-0.885C179.083,269.245,180.177,268.354,181.191,267.162L181.191,267.162z M190.596,262.492
		c0,2.376,0.729,4.337,2.188,5.894c1.46,1.549,3.275,2.328,5.44,2.328c2.172,0,3.989-0.779,5.439-2.328
		c1.443-1.557,2.173-3.518,2.173-5.894s-0.729-4.329-2.173-5.87c-1.45-1.532-3.267-2.303-5.439-2.303
		c-2.229,0-4.062,0.763-5.489,2.295C191.309,258.139,190.596,260.101,190.596,262.492L190.596,262.492z M209.713,270.275h3.405
		v3.356h-7.589v-2.967c-0.9,1.15-2.019,2.026-3.349,2.618c-1.329,0.592-2.837,0.884-4.515,0.884c-3.243,0-5.967-1.119-8.156-3.356
		c-2.197-2.237-3.291-5.011-3.291-8.318s1.103-6.089,3.299-8.343c2.206-2.254,4.922-3.381,8.148-3.381
		c1.629,0,3.105,0.292,4.41,0.876c1.306,0.583,2.457,1.46,3.454,2.626v-2.918h7.589v3.356h-3.405V270.275L209.713,270.275z
		 M220.082,273.632h-3.259v-7.248h3.259c0.601,1.379,1.589,2.48,2.968,3.3c1.37,0.819,2.935,1.224,4.67,1.224
		c1.442,0,2.61-0.308,3.51-0.916c0.9-0.607,1.354-1.41,1.354-2.391c0-0.779-0.251-1.379-0.762-1.809
		c-0.503-0.43-1.371-0.754-2.603-0.973l-5.254-0.933c-2.416-0.405-4.199-1.151-5.335-2.229c-1.143-1.07-1.71-2.529-1.71-4.361
		c0-2.012,0.729-3.6,2.196-4.768c1.46-1.176,3.471-1.76,6.016-1.76c1.549,0,2.927,0.228,4.135,0.689
		c1.2,0.454,2.052,1.063,2.538,1.8v-1.905h3.308v6.859h-3.308c-0.778-1.533-1.694-2.644-2.765-3.341
		c-1.07-0.688-2.392-1.038-3.956-1.038c-1.33,0-2.393,0.293-3.187,0.876c-0.786,0.584-1.184,1.37-1.184,2.343
		c0,0.778,0.292,1.387,0.867,1.841c0.575,0.446,1.5,0.786,2.765,1.005l4.589,0.787c2.772,0.47,4.71,1.191,5.805,2.156
		s1.638,2.375,1.638,4.232c0,2.132-0.794,3.859-2.375,5.172c-1.581,1.314-3.673,1.971-6.268,1.971c-1.491,0-2.861-0.235-4.11-0.697
		c-1.257-0.463-2.432-1.168-3.543-2.116V273.632L220.082,273.632z M262.119,270.275h3.405v3.356h-11.042v-3.356h3.453v-10.013
		c0-2.344-0.3-3.883-0.899-4.605c-0.601-0.729-1.613-1.094-3.041-1.094c-1.175,0-2.326,0.308-3.47,0.924
		c-1.135,0.616-2.318,1.572-3.534,2.87v11.918h3.453v3.356h-11.042v-3.356h3.405v-28.263h-3.405v-3.404h7.589v15.906
		c1.297-1.281,2.61-2.222,3.932-2.83c1.321-0.607,2.716-0.916,4.191-0.916c1.265,0,2.4,0.228,3.397,0.674
		c0.997,0.453,1.808,1.102,2.44,1.961c0.413,0.552,0.713,1.176,0.892,1.865c0.187,0.682,0.275,1.703,0.275,3.049v0.422V270.275
		L262.119,270.275z M298.903,242.013h-3.844v-3.404h8.026v31.667h3.843v3.356H295.06v-3.356h3.844V242.013L298.903,242.013z
		 M292.677,273.632h-12.404v-3.356h3.794v-15.566h-3.794v-3.356h3.794v-3.656c0-3.243,0.543-5.57,1.621-6.98
		c1.087-1.402,2.846-2.107,5.286-2.107c0.365,0,0.673,0,0.933,0.008s0.551,0.032,0.867,0.064v3.089h-1.118
		c-1.289,0-2.173,0.333-2.668,0.997c-0.494,0.665-0.737,2.148-0.737,4.451v4.135h4.523v3.356h-4.523v15.566h4.427V273.632
		L292.677,273.632z M309.321,262.443c0-3.323,1.167-6.097,3.494-8.326c2.326-2.229,5.229-3.349,8.715-3.349
		c3.503,0,6.413,1.119,8.732,3.349c2.318,2.229,3.478,5.003,3.478,8.326c0,3.324-1.159,6.104-3.478,8.351
		c-2.319,2.246-5.229,3.373-8.732,3.373c-3.485,0-6.389-1.127-8.715-3.373C310.488,268.548,309.321,265.768,309.321,262.443
		L309.321,262.443z M313.65,262.443c0,2.359,0.754,4.321,2.262,5.878c1.5,1.564,3.373,2.344,5.61,2.344
		c2.262,0,4.144-0.771,5.643-2.319c1.5-1.54,2.246-3.511,2.246-5.902s-0.746-4.362-2.246-5.901
		c-1.499-1.549-3.381-2.319-5.643-2.319c-2.237,0-4.11,0.778-5.61,2.343C314.404,258.122,313.65,260.084,313.65,262.443
		L313.65,262.443z M358.257,251.353v3.356h-3.251l5.246,12.704l4.759-12.704H361.8v-3.356h9.688v3.356h-2.731l-7.191,19.507h-2.384
		l-5.983-14.188l-5.935,14.188h-2.384l-7.216-19.507h-2.707v-3.356h10.021v3.356h-3.162l4.71,12.704l5.246-12.704h-3.202v-3.356
		H358.257z"/>
	<text transform="matrix(1 0 0 1 372.7813 250.293)" style="font-family:'Montserrat-SemiBold'; font-size:14;">TM</text>
</g>
</svg>
